<svg width="166" height="36" viewBox="0 0 166 36" fill="none" xmlns="http://www.w3.org/2000/svg">
<rect width="152.644" height="36" rx="18" fill="white"/>
<path opacity="0.9" d="M33.9068 21V10.5H35.5268V19.44H40.4468V21H33.9068ZM42.8863 21V10.5H49.5013V12.06H44.5063V19.44H49.5013V21H42.8863ZM43.6213 16.395V14.835H48.6763V16.395H43.6213ZM54.0951 21V12.06H51.1551V10.5H58.7451V12.06H55.7151V21H54.0951ZM63.9827 21.15C63.4127 21.15 62.8827 21.075 62.3927 20.925C61.9127 20.775 61.4727 20.55 61.0727 20.25C60.6827 19.94 60.3327 19.56 60.0227 19.11L61.1327 17.835C61.6227 18.535 62.0927 19.02 62.5427 19.29C62.9927 19.56 63.5277 19.695 64.1477 19.695C64.5277 19.695 64.8727 19.635 65.1827 19.515C65.4927 19.395 65.7377 19.23 65.9177 19.02C66.0977 18.81 66.1877 18.57 66.1877 18.3C66.1877 18.12 66.1577 17.95 66.0977 17.79C66.0377 17.63 65.9427 17.485 65.8127 17.355C65.6927 17.225 65.5327 17.105 65.3327 16.995C65.1427 16.885 64.9177 16.79 64.6577 16.71C64.3977 16.62 64.0977 16.545 63.7577 16.485C63.2177 16.375 62.7477 16.23 62.3477 16.05C61.9477 15.87 61.6127 15.645 61.3427 15.375C61.0727 15.105 60.8727 14.8 60.7427 14.46C60.6127 14.11 60.5477 13.72 60.5477 13.29C60.5477 12.87 60.6377 12.48 60.8177 12.12C61.0077 11.76 61.2627 11.45 61.5827 11.19C61.9127 10.92 62.2977 10.715 62.7377 10.575C63.1777 10.425 63.6527 10.35 64.1627 10.35C64.7027 10.35 65.1977 10.42 65.6477 10.56C66.0977 10.7 66.4977 10.91 66.8477 11.19C67.1977 11.46 67.4877 11.795 67.7177 12.195L66.5777 13.32C66.3777 12.99 66.1527 12.715 65.9027 12.495C65.6527 12.265 65.3777 12.095 65.0777 11.985C64.7777 11.865 64.4577 11.805 64.1177 11.805C63.7277 11.805 63.3877 11.865 63.0977 11.985C62.8077 12.105 62.5777 12.275 62.4077 12.495C62.2477 12.705 62.1677 12.955 62.1677 13.245C62.1677 13.455 62.2077 13.65 62.2877 13.83C62.3677 14 62.4877 14.155 62.6477 14.295C62.8177 14.425 63.0427 14.545 63.3227 14.655C63.6027 14.755 63.9377 14.845 64.3277 14.925C64.8777 15.045 65.3677 15.2 65.7977 15.39C66.2277 15.57 66.5927 15.785 66.8927 16.035C67.1927 16.285 67.4177 16.565 67.5677 16.875C67.7277 17.185 67.8077 17.52 67.8077 17.88C67.8077 18.55 67.6527 19.13 67.3427 19.62C67.0327 20.11 66.5927 20.49 66.0227 20.76C65.4527 21.02 64.7727 21.15 63.9827 21.15ZM74.3072 21V10.5H78.7772C79.3772 10.5 79.9272 10.65 80.4272 10.95C80.9372 11.24 81.3422 11.64 81.6422 12.15C81.9422 12.65 82.0922 13.215 82.0922 13.845C82.0922 14.415 81.9422 14.945 81.6422 15.435C81.3422 15.925 80.9422 16.32 80.4422 16.62C79.9422 16.91 79.3872 17.055 78.7772 17.055H75.9272V21H74.3072ZM80.5472 21L77.8772 16.26L79.5422 15.885L82.5122 21.015L80.5472 21ZM75.9272 15.495H78.9272C79.2172 15.495 79.4772 15.425 79.7072 15.285C79.9372 15.135 80.1172 14.935 80.2472 14.685C80.3772 14.425 80.4422 14.14 80.4422 13.83C80.4422 13.48 80.3572 13.175 80.1872 12.915C80.0272 12.645 79.7972 12.435 79.4972 12.285C79.2072 12.135 78.8772 12.06 78.5072 12.06H75.9272V15.495ZM84.7369 21V10.5H91.3519V12.06H86.3569V19.44H91.3519V21H84.7369ZM85.4719 16.395V14.835H90.5269V16.395H85.4719ZM92.8557 21L96.9207 10.5H98.5707L102.606 21H100.881L98.4807 14.67C98.4507 14.6 98.3907 14.43 98.3007 14.16C98.2207 13.89 98.1257 13.59 98.0157 13.26C97.9057 12.93 97.8057 12.63 97.7157 12.36C97.6257 12.08 97.5657 11.9 97.5357 11.82L97.8807 11.805C97.8207 11.975 97.7457 12.19 97.6557 12.45C97.5757 12.71 97.4857 12.985 97.3857 13.275C97.2957 13.565 97.2057 13.84 97.1157 14.1C97.0257 14.35 96.9507 14.56 96.8907 14.73L94.5057 21H92.8557ZM94.6557 18.39L95.2557 16.83H100.026L100.716 18.39H94.6557ZM104.454 21V10.5H108.564C109.314 10.5 109.989 10.625 110.589 10.875C111.199 11.125 111.719 11.485 112.149 11.955C112.579 12.425 112.909 12.98 113.139 13.62C113.369 14.26 113.484 14.97 113.484 15.75C113.484 16.53 113.369 17.245 113.139 17.895C112.909 18.535 112.579 19.09 112.149 19.56C111.729 20.02 111.214 20.375 110.604 20.625C109.994 20.875 109.314 21 108.564 21H104.454ZM106.074 19.605L106.029 19.44H108.489C109.019 19.44 109.489 19.355 109.899 19.185C110.319 19.015 110.669 18.775 110.949 18.465C111.239 18.145 111.459 17.755 111.609 17.295C111.759 16.835 111.834 16.32 111.834 15.75C111.834 15.18 111.759 14.67 111.609 14.22C111.459 13.76 111.239 13.37 110.949 13.05C110.659 12.73 110.309 12.485 109.899 12.315C109.489 12.145 109.019 12.06 108.489 12.06H105.984L106.074 11.925V19.605Z" fill="black"/>
<path d="M127.839 8.25L137.379 14.5L127.839 20.75" stroke="black" stroke-width="2"/>
</svg>
