<svg width="100" height="20" viewBox="0 0 100 20" fill="none" xmlns="http://www.w3.org/2000/svg">
<path d="M12.2676 18.8711C11.5801 18.8568 10.7279 18.8424 9.71094 18.8281C8.69401 18.8138 7.64128 18.8066 6.55273 18.8066C5.46419 18.8066 4.41146 18.8138 3.39453 18.8281C2.3776 18.8424 1.51823 18.8568 0.816406 18.8711V18.1191C1.24609 18.1191 1.59701 18.0905 1.86914 18.0332C2.14128 17.9759 2.34896 17.8685 2.49219 17.7109C2.63542 17.5534 2.72852 17.3314 2.77148 17.0449C2.82878 16.7585 2.85742 16.3717 2.85742 15.8848V5.50781C2.85742 5.0638 2.82878 4.71289 2.77148 4.45508C2.72852 4.19727 2.63542 3.99674 2.49219 3.85352C2.34896 3.72461 2.14128 3.64583 1.86914 3.61719C1.59701 3.57422 1.24609 3.54557 0.816406 3.53125V2.71484C1.07422 2.74349 1.47526 2.76497 2.01953 2.7793C2.57812 2.7793 3.16536 2.7793 3.78125 2.7793C4.41146 2.7793 5.01302 2.7793 5.58594 2.7793C6.15885 2.76497 6.5957 2.74349 6.89648 2.71484V3.53125C6.45247 3.54557 6.0944 3.57422 5.82227 3.61719C5.55013 3.64583 5.33529 3.73177 5.17773 3.875C5.03451 4.00391 4.93424 4.19727 4.87695 4.45508C4.83398 4.71289 4.8125 5.0638 4.8125 5.50781V15.8848C4.8125 16.3574 4.86263 16.7298 4.96289 17.002C5.06315 17.2741 5.25651 17.4818 5.54297 17.625C5.8151 17.7682 6.20182 17.8613 6.70312 17.9043C7.21875 17.9329 7.8776 17.9473 8.67969 17.9473C9.2526 17.9473 9.73242 17.9186 10.1191 17.8613C10.5202 17.7897 10.8568 17.6536 11.1289 17.4531C11.3867 17.2383 11.6087 16.9518 11.7949 16.5938C11.9811 16.2214 12.153 15.7344 12.3105 15.1328H13.1914L12.2676 18.8711ZM18.2617 9.95508H21.334C21.8496 9.95508 22.2077 9.83333 22.4082 9.58984C22.6087 9.33203 22.709 8.79492 22.709 7.97852H23.5898V13.2852H22.709C22.709 12.8125 22.6875 12.4329 22.6445 12.1465C22.6159 11.86 22.5514 11.638 22.4512 11.4805C22.3509 11.3229 22.2077 11.2227 22.0215 11.1797C21.8353 11.1224 21.599 11.0938 21.3125 11.0938H18.2617V15.9922C18.2617 16.4219 18.2904 16.7656 18.3477 17.0234C18.4049 17.2812 18.5195 17.4818 18.6914 17.625C18.8776 17.7682 19.1283 17.8613 19.4434 17.9043C19.7728 17.9329 20.2025 17.9473 20.7324 17.9473H22.3223C22.8665 17.9473 23.3177 17.9115 23.6758 17.8398C24.0482 17.7539 24.3561 17.6035 24.5996 17.3887C24.8574 17.1882 25.0723 16.9089 25.2441 16.5508C25.4303 16.1784 25.6094 15.7057 25.7812 15.1328H26.7266C26.5404 15.7201 26.347 16.3503 26.1465 17.0234C25.9603 17.6823 25.8027 18.2982 25.6738 18.8711C24.7572 18.8568 23.8047 18.8496 22.8164 18.8496C21.8281 18.8353 20.8327 18.8281 19.8301 18.8281C18.8418 18.8281 17.8678 18.8353 16.9082 18.8496C15.9486 18.8496 15.0391 18.8568 14.1797 18.8711V18.0977C14.6237 18.0977 14.9818 18.069 15.2539 18.0117C15.5404 17.9544 15.7624 17.847 15.9199 17.6895C16.0632 17.5462 16.1634 17.3385 16.2207 17.0664C16.278 16.7799 16.3066 16.4219 16.3066 15.9922V5.46484C16.3066 5.03516 16.278 4.69857 16.2207 4.45508C16.1634 4.19727 16.0632 4.00391 15.9199 3.875C15.7624 3.74609 15.5404 3.66016 15.2539 3.61719C14.9818 3.57422 14.6237 3.55273 14.1797 3.55273V2.75781C15.0104 2.78646 15.8913 2.80794 16.8223 2.82227C17.7533 2.82227 18.6914 2.82227 19.6367 2.82227C20.582 2.82227 21.513 2.82227 22.4297 2.82227C23.3464 2.80794 24.2057 2.78646 25.0078 2.75781V6.41016H24.1484C24.0768 5.80859 23.9909 5.32878 23.8906 4.9707C23.8047 4.61263 23.6543 4.33333 23.4395 4.13281C23.2389 3.94661 22.9596 3.82487 22.6016 3.76758C22.2435 3.69596 21.778 3.66016 21.2051 3.66016H18.2617V9.95508ZM41.1211 5.91602H40.1973C40.1829 5.51497 40.1543 5.17839 40.1113 4.90625C40.0684 4.63411 39.9753 4.41927 39.832 4.26172C39.7031 4.08984 39.5098 3.97526 39.252 3.91797C38.9941 3.84635 38.6432 3.81055 38.1992 3.81055H35.2773V15.9062C35.2773 16.3789 35.2988 16.7585 35.3418 17.0449C35.3991 17.3171 35.5065 17.5319 35.6641 17.6895C35.8073 17.847 36.015 17.9544 36.2871 18.0117C36.5592 18.069 36.9102 18.0977 37.3398 18.0977V18.8711C36.9818 18.8711 36.5306 18.8711 35.9863 18.8711C35.4421 18.8568 34.8763 18.8496 34.2891 18.8496C33.7161 18.8496 33.1576 18.8568 32.6133 18.8711C32.069 18.8711 31.625 18.8783 31.2812 18.8926V18.0977C31.6966 18.0977 32.0332 18.069 32.291 18.0117C32.5632 17.9544 32.778 17.847 32.9355 17.6895C33.0788 17.5319 33.179 17.3171 33.2363 17.0449C33.2936 16.7585 33.3223 16.3789 33.3223 15.9062V3.81055H30.8516C30.3789 3.81055 29.9922 3.83919 29.6914 3.89648C29.3906 3.95378 29.1471 4.0612 28.9609 4.21875C28.7747 4.36198 28.6243 4.57682 28.5098 4.86328C28.3952 5.13542 28.2878 5.48633 28.1875 5.91602H27.2422L27.543 2.71484C28.4453 2.75781 29.498 2.78646 30.7012 2.80078C31.9186 2.8151 33.1576 2.82227 34.418 2.82227C35.6784 2.82227 36.9102 2.8151 38.1133 2.80078C39.3307 2.78646 40.3978 2.75781 41.3145 2.71484L41.1211 5.91602ZM44.4727 3.53125C44.2578 3.58854 44.0501 3.58854 43.8496 3.53125C43.6491 3.45964 43.4701 3.35938 43.3125 3.23047C43.1693 3.08724 43.0475 2.92969 42.9473 2.75781C42.8613 2.57161 42.8184 2.38542 42.8184 2.19922C42.8184 1.82682 42.9544 1.49023 43.2266 1.18945C43.513 0.874349 43.8783 0.716797 44.3223 0.716797C44.8665 0.716797 45.2819 0.917318 45.5684 1.31836C45.8691 1.70508 46.0195 2.19206 46.0195 2.7793C46.0195 3.58138 45.8047 4.29753 45.375 4.92773C44.9453 5.55794 44.3079 6.00911 43.4629 6.28125L43.0547 5.72266C43.5703 5.52214 43.9714 5.25 44.2578 4.90625C44.5443 4.54818 44.6875 4.14714 44.6875 3.70312C44.6875 3.53125 44.6159 3.47396 44.4727 3.53125ZM48.9629 14.8965H49.8867C49.9727 15.3405 50.0872 15.7702 50.2305 16.1855C50.388 16.6009 50.5885 16.9661 50.832 17.2812C51.0755 17.5964 51.3763 17.847 51.7344 18.0332C52.0924 18.2194 52.5293 18.3125 53.0449 18.3125C54.0332 18.3125 54.8424 18.0332 55.4727 17.4746C56.1029 16.916 56.418 16.2142 56.418 15.3691C56.418 14.8678 56.3249 14.4382 56.1387 14.0801C55.9525 13.7077 55.709 13.3783 55.4082 13.0918C55.1074 12.8197 54.7637 12.569 54.377 12.3398C53.9902 12.1107 53.5892 11.8743 53.1738 11.6309C52.7441 11.4017 52.3073 11.1582 51.8633 10.9004C51.4193 10.6283 51.0182 10.3132 50.6602 9.95508C50.3021 9.58268 50.0085 9.16016 49.7793 8.6875C49.5501 8.20052 49.4355 7.6276 49.4355 6.96875C49.4355 6.19531 49.5573 5.52214 49.8008 4.94922C50.0586 4.3763 50.4095 3.89648 50.8535 3.50977C51.2832 3.13737 51.7988 2.85807 52.4004 2.67188C53.002 2.47135 53.6465 2.37109 54.334 2.37109C54.5918 2.37109 54.8353 2.38542 55.0645 2.41406C55.2936 2.44271 55.5156 2.47135 55.7305 2.5C55.9453 2.52865 56.1602 2.56445 56.375 2.60742C56.5898 2.65039 56.819 2.6862 57.0625 2.71484L57.4707 5.85156H56.5469C56.418 5.00651 56.153 4.3763 55.752 3.96094C55.3652 3.54557 54.7852 3.33789 54.0117 3.33789C53.0234 3.33789 52.2786 3.61003 51.7773 4.1543C51.2904 4.69857 51.0469 5.36458 51.0469 6.15234C51.0469 6.65365 51.1543 7.10482 51.3691 7.50586C51.584 7.89258 51.8633 8.24349 52.207 8.55859C52.5508 8.88802 52.9375 9.18164 53.3672 9.43945C53.8112 9.69727 54.2624 9.93359 54.7207 10.1484C55.1504 10.3776 55.5801 10.6211 56.0098 10.8789C56.4395 11.1224 56.819 11.4089 57.1484 11.7383C57.4922 12.0677 57.7643 12.4544 57.9648 12.8984C58.1797 13.3424 58.2871 13.8724 58.2871 14.4883C58.2871 15.276 58.1296 15.9707 57.8145 16.5723C57.4993 17.1595 57.0911 17.6465 56.5898 18.0332C56.0885 18.4342 55.5156 18.735 54.8711 18.9355C54.2266 19.1361 53.5749 19.2363 52.916 19.2363C52.2572 19.2363 51.6556 19.179 51.1113 19.0645C50.5814 18.9499 50.0371 18.7637 49.4785 18.5059L48.9629 14.8965ZM80.6094 7.05469H79.6855C79.4277 5.73698 78.8835 4.79167 78.0527 4.21875C77.222 3.63151 76.1621 3.33789 74.873 3.33789C73.8275 3.33789 72.8965 3.55273 72.0801 3.98242C71.278 4.41211 70.5977 4.9707 70.0391 5.6582C69.4948 6.36003 69.0794 7.15495 68.793 8.04297C68.5065 8.91667 68.3633 9.81185 68.3633 10.7285C68.3633 11.7168 68.5065 12.6693 68.793 13.5859C69.0938 14.4883 69.5306 15.2904 70.1035 15.9922C70.6764 16.694 71.3711 17.2598 72.1875 17.6895C73.0182 18.1048 73.9707 18.3125 75.0449 18.3125C75.5319 18.3125 75.9544 18.2767 76.3125 18.2051C76.6706 18.1335 76.9785 18.0547 77.2363 17.9688C77.4941 17.8685 77.7018 17.7682 77.8594 17.668C78.0312 17.5677 78.1602 17.4818 78.2461 17.4102V14.1016C78.2461 13.4141 78.0885 12.9915 77.7734 12.834C77.4727 12.6621 76.9427 12.5762 76.1836 12.5762V11.7598C76.5417 11.7741 76.9714 11.7884 77.4727 11.8027C77.9883 11.8027 78.5111 11.8027 79.041 11.8027C79.571 11.8027 80.0794 11.8027 80.5664 11.8027C81.0534 11.7884 81.4616 11.7741 81.791 11.7598V12.5547C81.2611 12.5547 80.86 12.6406 80.5879 12.8125C80.3301 12.9844 80.2012 13.4141 80.2012 14.1016V16.959L80.5449 17.3242V17.9043C79.528 18.3483 78.5612 18.6849 77.6445 18.9141C76.7422 19.1289 75.7969 19.2363 74.8086 19.2363C73.5339 19.2363 72.3665 19.0215 71.3066 18.5918C70.2467 18.1478 69.3444 17.5462 68.5996 16.7871C67.8405 16.028 67.2533 15.14 66.8379 14.123C66.4225 13.1061 66.2148 12.0247 66.2148 10.8789C66.2148 9.67578 66.4297 8.55859 66.8594 7.52734C67.2891 6.48177 67.8835 5.57943 68.6426 4.82031C69.3874 4.0612 70.2682 3.4668 71.2852 3.03711C72.3021 2.5931 73.3906 2.37109 74.5508 2.37109C75.5677 2.37109 76.5202 2.49284 77.4082 2.73633C78.3105 2.96549 79.2344 3.25195 80.1797 3.5957L80.6094 7.05469ZM99.5371 10.7285C99.5371 11.7884 99.3438 12.834 98.957 13.8652C98.5703 14.8822 98.026 15.7845 97.3242 16.5723C96.6224 17.3743 95.7773 18.0189 94.7891 18.5059C93.8151 18.9928 92.7266 19.2363 91.5234 19.2363C90.4206 19.2363 89.3822 19.0143 88.4082 18.5703C87.4342 18.112 86.5892 17.5033 85.873 16.7441C85.1426 15.985 84.5697 15.1042 84.1543 14.1016C83.7389 13.0846 83.5312 12.0176 83.5312 10.9004C83.5312 9.84049 83.7246 8.80208 84.1113 7.78516C84.498 6.76823 85.0423 5.85872 85.7441 5.05664C86.446 4.25456 87.291 3.61003 88.2793 3.12305C89.2819 2.62174 90.3848 2.37109 91.5879 2.37109C92.6764 2.37109 93.7005 2.60026 94.6602 3.05859C95.6341 3.51693 96.4792 4.12565 97.1953 4.88477C97.9258 5.6582 98.4987 6.55339 98.9141 7.57031C99.3294 8.57292 99.5371 9.62565 99.5371 10.7285ZM97.2812 11.373C97.2812 10.528 97.1595 9.63997 96.916 8.70898C96.6725 7.76367 96.3001 6.88997 95.7988 6.08789C95.3118 5.30013 94.6888 4.64844 93.9297 4.13281C93.1849 3.60286 92.3112 3.33789 91.3086 3.33789C90.4922 3.33789 89.7402 3.50977 89.0527 3.85352C88.3796 4.19727 87.7995 4.66992 87.3125 5.27148C86.8112 5.88737 86.4245 6.61784 86.1523 7.46289C85.8945 8.30794 85.7656 9.23177 85.7656 10.2344C85.7656 11.0938 85.8874 12.0033 86.1309 12.9629C86.3743 13.9082 86.7467 14.7747 87.248 15.5625C87.7493 16.3646 88.3724 17.0234 89.1172 17.5391C89.8763 18.0547 90.7643 18.3125 91.7812 18.3125C92.6406 18.3125 93.4069 18.1478 94.0801 17.8184C94.7676 17.4746 95.3477 16.9948 95.8203 16.3789C96.293 15.763 96.651 15.0326 96.8945 14.1875C97.1523 13.3281 97.2812 12.39 97.2812 11.373Z" fill="black"/>
</svg>
