<svg width="278" height="17" viewBox="0 0 278 17" fill="none" xmlns="http://www.w3.org/2000/svg">
<path d="M6.842 16.22C5.63933 16.22 4.488 16.0513 3.388 15.714C2.288 15.362 1.41533 14.9147 0.77 14.372L1.76 12.15C2.376 12.634 3.13867 13.0373 4.048 13.36C4.95733 13.6827 5.88867 13.844 6.842 13.844C7.64867 13.844 8.30133 13.756 8.8 13.58C9.29867 13.404 9.66533 13.1693 9.9 12.876C10.1347 12.568 10.252 12.2233 10.252 11.842C10.252 11.3727 10.0833 10.9987 9.746 10.72C9.40867 10.4267 8.96867 10.1993 8.426 10.038C7.898 9.862 7.304 9.70067 6.644 9.554C5.99867 9.40733 5.346 9.23867 4.686 9.048C4.04067 8.84267 3.44667 8.586 2.904 8.278C2.376 7.95533 1.94333 7.53 1.606 7.002C1.26867 6.474 1.1 5.79933 1.1 4.978C1.1 4.142 1.32 3.37933 1.76 2.69C2.21467 1.986 2.89667 1.42867 3.806 1.018C4.73 0.592666 5.896 0.379999 7.304 0.379999C8.228 0.379999 9.14467 0.497333 10.054 0.732C10.9633 0.966666 11.7553 1.304 12.43 1.744L11.528 3.966C10.8387 3.55533 10.1273 3.25467 9.394 3.064C8.66067 2.85867 7.95667 2.756 7.282 2.756C6.49 2.756 5.84467 2.85133 5.346 3.042C4.862 3.23267 4.50267 3.482 4.268 3.79C4.048 4.098 3.938 4.45 3.938 4.846C3.938 5.31533 4.09933 5.69667 4.422 5.99C4.75933 6.26867 5.192 6.48867 5.72 6.65C6.26267 6.81133 6.864 6.97267 7.524 7.134C8.184 7.28067 8.83667 7.44933 9.482 7.64C10.142 7.83067 10.736 8.08 11.264 8.388C11.8067 8.696 12.2393 9.114 12.562 9.642C12.8993 10.17 13.068 10.8373 13.068 11.644C13.068 12.4653 12.8407 13.228 12.386 13.932C11.946 14.6213 11.264 15.1787 10.34 15.604C9.416 16.0147 8.25 16.22 6.842 16.22ZM19.5339 16L14.4299 0.599999H17.3999L21.9539 14.526H20.4799L25.2099 0.599999H27.8499L32.4479 14.526H31.0179L35.6819 0.599999H38.4099L33.3059 16H30.2699L26.0679 3.438H26.8599L22.5919 16H19.5339ZM43.3799 7.002H51.0359V9.356H43.3799V7.002ZM43.5999 13.602H52.2899V16H40.7399V0.599999H51.9819V2.998H43.5999V13.602ZM53.3002 16L60.2302 0.599999H63.0462L69.9982 16H67.0062L61.0442 2.118H62.1882L56.2482 16H53.3002ZM56.4902 12.436L57.2602 10.192H65.5762L66.3462 12.436H56.4902ZM74.3072 16V3.02H69.2032V0.599999H82.2712V3.02H77.1672V16H74.3072ZM91.1137 16.154C90.615 16.154 90.1897 15.9853 89.8377 15.648C89.4857 15.296 89.3097 14.856 89.3097 14.328C89.3097 13.7707 89.4857 13.3307 89.8377 13.008C90.1897 12.6707 90.615 12.502 91.1137 12.502C91.6124 12.502 92.0377 12.6707 92.3897 13.008C92.7417 13.3307 92.9177 13.7707 92.9177 14.328C92.9177 14.856 92.7417 15.296 92.3897 15.648C92.0377 15.9853 91.6124 16.154 91.1137 16.154ZM106.723 16.22C105.52 16.22 104.369 16.0513 103.269 15.714C102.169 15.362 101.296 14.9147 100.651 14.372L101.641 12.15C102.257 12.634 103.02 13.0373 103.929 13.36C104.838 13.6827 105.77 13.844 106.723 13.844C107.53 13.844 108.182 13.756 108.681 13.58C109.18 13.404 109.546 13.1693 109.781 12.876C110.016 12.568 110.133 12.2233 110.133 11.842C110.133 11.3727 109.964 10.9987 109.627 10.72C109.29 10.4267 108.85 10.1993 108.307 10.038C107.779 9.862 107.185 9.70067 106.525 9.554C105.88 9.40733 105.227 9.23867 104.567 9.048C103.922 8.84267 103.328 8.586 102.785 8.278C102.257 7.95533 101.824 7.53 101.487 7.002C101.15 6.474 100.981 5.79933 100.981 4.978C100.981 4.142 101.201 3.37933 101.641 2.69C102.096 1.986 102.778 1.42867 103.687 1.018C104.611 0.592666 105.777 0.379999 107.185 0.379999C108.109 0.379999 109.026 0.497333 109.935 0.732C110.844 0.966666 111.636 1.304 112.311 1.744L111.409 3.966C110.72 3.55533 110.008 3.25467 109.275 3.064C108.542 2.85867 107.838 2.756 107.163 2.756C106.371 2.756 105.726 2.85133 105.227 3.042C104.743 3.23267 104.384 3.482 104.149 3.79C103.929 4.098 103.819 4.45 103.819 4.846C103.819 5.31533 103.98 5.69667 104.303 5.99C104.64 6.26867 105.073 6.48867 105.601 6.65C106.144 6.81133 106.745 6.97267 107.405 7.134C108.065 7.28067 108.718 7.44933 109.363 7.64C110.023 7.83067 110.617 8.08 111.145 8.388C111.688 8.696 112.12 9.114 112.443 9.642C112.78 10.17 112.949 10.8373 112.949 11.644C112.949 12.4653 112.722 13.228 112.267 13.932C111.827 14.6213 111.145 15.1787 110.221 15.604C109.297 16.0147 108.131 16.22 106.723 16.22ZM115.785 16V0.599999H118.139L124.871 11.842H123.639L130.261 0.599999H132.615L132.637 16H129.931L129.909 4.846H130.481L124.849 14.24H123.573L117.853 4.846H118.513V16H115.785ZM136.797 16V0.599999H139.657V16H136.797ZM143.822 16V0.599999H146.682V13.58H154.734V16H143.822ZM159.632 7.002H167.288V9.356H159.632V7.002ZM159.852 13.602H168.542V16H156.992V0.599999H168.234V2.998H159.852V13.602ZM178.426 16.154C177.928 16.154 177.502 15.9853 177.15 15.648C176.798 15.296 176.622 14.856 176.622 14.328C176.622 13.7707 176.798 13.3307 177.15 13.008C177.502 12.6707 177.928 12.502 178.426 12.502C178.925 12.502 179.35 12.6707 179.702 13.008C180.054 13.3307 180.23 13.7707 180.23 14.328C180.23 14.856 180.054 15.296 179.702 15.648C179.35 15.9853 178.925 16.154 178.426 16.154ZM189.261 16V0.599999H195.597C196.961 0.599999 198.127 0.819999 199.095 1.26C200.078 1.7 200.833 2.33067 201.361 3.152C201.889 3.97333 202.153 4.94867 202.153 6.078C202.153 7.20733 201.889 8.18267 201.361 9.004C200.833 9.81067 200.078 10.434 199.095 10.874C198.127 11.2993 196.961 11.512 195.597 11.512H190.845L192.121 10.214V16H189.261ZM199.337 16L195.443 10.412H198.501L202.417 16H199.337ZM192.121 10.522L190.845 9.158H195.465C196.727 9.158 197.673 8.88667 198.303 8.344C198.949 7.80133 199.271 7.046 199.271 6.078C199.271 5.09533 198.949 4.34 198.303 3.812C197.673 3.284 196.727 3.02 195.465 3.02H190.845L192.121 1.612V10.522ZM207.993 7.002H215.649V9.356H207.993V7.002ZM208.213 13.602H216.903V16H205.353V0.599999H216.595V2.998H208.213V13.602ZM220.091 16V0.599999H226.427C227.791 0.599999 228.957 0.819999 229.925 1.26C230.908 1.7 231.663 2.33067 232.191 3.152C232.719 3.97333 232.983 4.94867 232.983 6.078C232.983 7.20733 232.719 8.18267 232.191 9.004C231.663 9.82533 230.908 10.456 229.925 10.896C228.957 11.336 227.791 11.556 226.427 11.556H221.675L222.951 10.214V16H220.091ZM222.951 10.522L221.675 9.136H226.295C227.557 9.136 228.503 8.872 229.133 8.344C229.779 7.80133 230.101 7.046 230.101 6.078C230.101 5.09533 229.779 4.34 229.133 3.812C228.503 3.284 227.557 3.02 226.295 3.02H221.675L222.951 1.612V10.522ZM238.479 7.002H246.135V9.356H238.479V7.002ZM238.699 13.602H247.389V16H235.839V0.599999H247.081V2.998H238.699V13.602ZM248.4 16L255.33 0.599999H258.146L265.098 16H262.106L256.144 2.118H257.288L251.348 16H248.4ZM251.59 12.436L252.36 10.192H260.676L261.446 12.436H251.59ZM269.407 16V3.02H264.303V0.599999H277.371V3.02H272.267V16H269.407Z" fill="white"/>
</svg>
